PathFileType	4	(X/Y/Z)	D:\TRACE\spotREDO_2-26-24\spot_baseline_5-v60.trc
DataRate	CameraRate	NumFrames	NumMarkers	Units	OrigDataRate	OrigDataStartFrame	OrigNumFrames
100.00	100.00	      28	9	mm	100.00	876	      7000
Frame#	Time	front left toe			Front right toe			aft left toe			aft right toe			Arm			FL body			FR body			AL Body			AR Body			
		X1	Y1	Z1	X2	Y2	Z2	X3	Y3	Z3	X4	Y4	Z4	X5	Y5	Z5	X6	Y6	Z6	X7	Y7	Z7	X8	Y8	Z8	X9	Y9	Z9	

876	8.750	-252.52391	42.15789	-147.29097	314.56702	25.86420	-89.76534	-254.96198	22.27351	354.42477	264.05801	29.19948	450.58026	56.84153	809.80725	-231.42468	-25.82134	549.71704	-214.41774	130.28732	556.11444	-202.27695	-104.83914	560.65668	665.58356	43.89602	561.69635	679.62799	
877	8.760	-252.58426	31.25590	-147.39088	314.50302	25.73989	-89.83862	-255.07909	22.19748	354.47943	264.06552	29.19561	450.61447	56.81441	809.76459	-231.54143	-25.91714	549.61407	-214.56061	130.23125	556.06116	-202.40179	-104.85810	560.61639	665.57568	43.93535	561.70831	679.52686	
878	8.770	-253.05057	24.05428	-149.74353	315.17938	26.72223	-89.50453	-255.04138	22.27347	354.42538	264.08737	29.22401	450.57129	56.69616	809.74805	-231.64035	-25.98266	549.57941	-214.64664	130.22650	556.01959	-202.49445	-104.87540	560.61432	665.47815	43.82842	561.75952	679.41339	
879	8.780	-254.16765	23.25439	-149.64989	314.99188	26.43451	-89.74225	-254.84694	22.28909	354.31247	264.26208	28.79276	450.89154	56.54662	809.72693	-231.73666	-25.73227	549.98621	-214.68513	130.27235	556.18756	-202.54070	-104.83112	560.56146	665.31323	43.94793	561.62018	679.32404	
880	8.790	-255.97061	23.85885	-146.84460	313.86023	26.55976	-89.86881	-255.18875	22.29573	354.43875	264.98993	28.13103	450.02966	57.21552	810.19531	-231.52425	-25.61319	551.28271	-214.87752	129.44542	557.52374	-203.00574	-104.86845	560.34039	665.23114	43.70504	561.47162	679.04352	
881	8.800	-254.94412	24.51011	-148.25613	314.71716	28.32591	-88.62607	-255.27815	22.34514	354.38965	264.28818	28.66990	450.63721	57.85236	811.79303	-231.54231	-25.62809	551.55280	-214.80814	129.57158	557.84674	-203.17078	-104.82300	560.53381	665.08197	43.96854	561.55914	679.15125	
882	8.810	-254.42241	24.54110	-147.66560	314.31882	27.83882	-89.09009	-255.28438	22.35663	354.29172	264.05038	29.05387	450.54449	58.12486	812.61603	-231.35867	-25.18285	551.53070	-215.10165	129.99445	557.85986	-203.18988	-105.16396	561.25140	664.60583	43.61206	562.43317	678.84625	
883	8.820	-254.20900	24.46728	-147.87953	315.25873	28.00544	-88.21545	-255.37369	22.37795	354.27548	264.08768	29.06584	450.59937	58.51473	812.50989	-231.65625	-24.51245	551.57080	-215.36342	131.53593	557.83527	-202.94209	-105.36200	561.64703	664.26666	43.17957	562.87573	678.50659	
884	8.830	-254.06557	24.55109	-147.98238	315.25391	27.59879	-88.82157	-255.36368	22.35534	354.18497	264.09329	29.03785	450.58804	58.93962	811.86438	-232.11365	-23.95018	551.72400	-215.67690	131.95432	558.01849	-203.08597	-105.40257	561.84692	663.93219	43.42635	563.00867	678.49048	
885	8.840	-254.10419	24.62094	-148.07207	315.50284	27.59492	-88.78268	-255.33777	22.35213	354.17151	264.06030	29.01692	450.57108	59.17672	811.45276	-232.59087	-23.57018	551.54987	-215.94635	132.33960	557.97058	-203.39227	-105.30615	562.00616	663.67737	43.54065	563.38385	678.26929	
886	8.850	-254.13272	24.64624	-148.11023	315.06152	26.96589	-89.32500	-255.32187	22.40728	354.16052	264.09186	28.95647	450.52600	59.84739	811.26935	-232.99973	-23.28943	551.29535	-216.24724	132.60690	557.73718	-203.70381	-104.97520	562.23730	663.43195	43.85476	563.65143	677.91003	
887	8.860	-254.18369	24.63818	-148.06192	315.12521	26.89239	-89.33746	-255.20634	22.45333	354.17667	264.18494	28.79473	450.48862	60.26500	811.03552	-233.37602	-23.10170	550.99438	-216.56837	132.86073	557.37787	-203.92902	-104.55747	562.33295	663.22375	44.14593	563.81268	677.77936	
888	8.870	-254.26143	24.55606	-148.03339	315.10291	26.80694	-89.33144	-255.15665	22.51162	354.10858	264.24356	28.69452	450.44208	60.28891	810.71564	-233.98285	-22.86639	550.59961	-216.71202	133.10072	556.87360	-204.35275	-102.73218	561.94006	663.18762	44.69021	563.94702	677.37323	
889	8.880	-254.34105	24.46471	-148.00520	315.24463	26.65259	-89.32458	-255.06033	22.48686	354.09436	264.38956	28.60562	450.37323	60.12403	810.41187	-234.62010	-22.59505	550.41064	-217.04137	132.64958	556.24371	-204.61479	-102.36207	562.11389	662.46753	45.28835	564.16602	676.88434	
890	8.890	-254.50121	24.59064	-148.02113	315.29340	26.65562	-89.31474	-254.95059	22.42361	354.15088	264.45721	28.50448	450.31439	60.34646	810.10577	-235.05794	-22.24406	549.96881	-217.49297	133.61139	555.81305	-204.97540	-101.61755	562.28802	662.25702	45.79066	564.24646	676.34521	
891	8.900	-254.54782	24.63461	-148.06798	315.26926	26.67520	-89.31493	-254.97881	22.45841	354.08246	264.51804	28.47238	450.28833	60.78887	809.78186	-235.81003	-22.05595	549.72382	-218.03735	133.75325	555.58270	-205.33376	-101.26343	562.47369	662.00507	46.28864	564.37408	676.10034	
892	8.910	-254.57976	24.76800	-148.05640	315.85406	27.07086	-88.96756	-254.91570	22.56972	354.03693	264.56604	28.43837	450.24762	61.22765	809.58807	-236.12994	-21.86446	549.68378	-218.52838	134.04230	555.34369	-205.73169	-100.85201	562.74213	661.39764	46.62151	564.53137	675.65698	
893	8.920	-254.77820	24.92272	-148.07397	315.77240	27.17372	-89.05989	-254.94205	22.65162	353.96078	264.61105	28.42205	450.22055	61.53283	809.41089	-236.50238	-21.52536	549.49603	-218.83424	134.46037	555.13287	-206.38393	-100.37386	562.85406	661.20978	47.04788	564.86810	675.01862	
894	8.930	-254.77951	24.95167	-148.13109	315.24149	26.65680	-89.36636	-254.85594	22.57796	353.99008	264.66318	28.35127	450.13919	62.24244	809.27240	-237.14536	-21.18103	549.41327	-219.29581	134.75565	554.99768	-206.63686	-99.99062	563.24939	660.53198	47.69209	564.88269	674.60870	
895	8.940	-253.82971	24.08029	-147.90221	315.77991	26.94276	-89.11934	-254.87926	22.51418	353.90012	264.76801	28.31168	450.10193	62.68204	809.01727	-237.78584	-20.98400	549.25153	-219.79594	134.45265	554.90485	-207.30824	-99.28777	563.30481	660.33838	47.94702	564.99261	674.32697	
896	8.950	-253.84413	24.14548	-147.96812	315.76212	27.00216	-89.11089	-254.81158	22.45814	353.82452	264.75760	28.33301	450.06482	63.14307	808.83142	-238.24065	-20.45010	549.08618	-220.29105	134.94402	554.72925	-207.89259	-99.15958	563.60260	659.65125	48.32229	565.21417	673.84686	
897	8.960	-253.84837	24.24769	-148.00674	315.85464	27.01798	-89.07335	-254.86716	22.61459	353.70947	264.72491	28.27522	450.06601	63.59601	808.69165	-239.00557	-19.90151	548.94733	-220.55562	135.99583	554.38074	-208.18697	-98.51063	563.91040	659.29272	48.64161	565.59448	673.05029	
898	8.970	-253.81682	24.30824	-148.08054	315.88223	27.01830	-89.18559	-254.89952	22.73058	353.65793	264.78839	28.37876	450.01041	63.98789	808.69452	-239.62991	-19.57512	549.00421	-221.06372	136.36746	554.23755	-208.55287	-98.22100	564.12640	658.65460	49.46058	565.61426	672.77954	
899	8.980	-253.84209	24.32995	-148.12537	315.89130	26.84048	-89.30128	-254.86298	22.75075	353.61325	264.79453	28.33324	449.98245	64.39132	808.63611	-240.22409	-19.13741	548.87549	-221.67485	136.91098	554.10541	-209.15862	-97.75852	564.34222	658.12134	49.96906	565.87079	672.47418	
900	8.990	-253.81715	24.28514	-148.15028	315.99985	26.74959	-89.18340	-254.81850	22.75465	353.52344	264.80518	28.24018	449.93042	65.29212	808.44330	-240.68599	-18.75842	548.77191	-222.32420	137.52560	553.95740	-209.63031	-96.99871	564.60834	657.89465	49.94731	566.06970	671.71936	
901	9.000	-253.83401	24.32634	-148.22920	316.00427	26.79843	-89.21617	-254.77031	22.72400	353.41580	264.80838	28.16860	449.90005	65.78487	808.23083	-241.26137	-18.27808	548.67096	-222.62236	137.68806	553.87878	-210.16656	-96.56616	564.84369	657.32483	50.52185	566.22437	671.15649	
902	9.010	-253.83914	24.36057	-148.21695	315.92801	26.88717	-89.29253	-254.74387	22.72136	353.41415	264.88855	28.12373	449.89011	66.06279	808.11139	-242.00299	-18.08496	548.78864	-223.30885	137.98898	553.73785	-210.76462	-96.37996	565.14630	656.40088	51.16772	566.29840	670.46857	
903	9.020	-253.63472	24.32307	-148.24530	315.93381	26.88816	-89.38240	-254.71277	22.89326	353.40189	265.00473	28.20811	449.94928	66.49488	808.18750	-242.56444	-17.54227	548.94220	-223.98550	138.37361	553.60120	-211.32884	-95.34475	565.22601	656.34088	51.81780	566.43890	670.08557	
